=========================================================================================================================
				HD DESI ROCKERS RELEASES
=========================================================================================================================

General
Complete name                    : mr.bean\'s holiday.dual.Audio.hindi-eng.bluray.720p.DjVikas
Format                           : Matroska
File size                        : 2.15 GiB
Duration                         : 1h 25mn
Overall bit rate                 : 3 585 Kbps
Movie name                       : mr.bean\'s holiday.dual.Audio.hindi-eng.bluray.720p.DjVikas


Video
ID                               : 1
Format                           : AVC
Format/Info                      : Advanced Video Codec
Format profile                   : High@L4.1
Format settings, CABAC           : Yes
Format settings, ReFrames        : 6 frames
Muxing mode                      : Container profile=Unknown@4.1
Codec ID                         : V_MPEG4/ISO/AVC
Duration                         : 1h 25mn
Bit rate                         : 2 810 Kbps
Width                            : 1 280 pixels
Height                           : 688 pixels
Display aspect ratio             : 1.860
Frame rate                       : 25.000 fps
Original frame rate              : 23.976 fps
Color space                      : YUV
Chroma subsampling               : 4:2:0
Bit depth                        : 8 bits
Scan type                        : Progressive
Bits/(Pixel*Frame)               : 0.128
Stream size                      : 1.69 GiB (78%)
Writing library                  : x264 core 77 r1292kGIT e381f6d

Audio #1
ID                               : 2
Format                           : AC-3
Format/Info                      : Audio Coding 3
Mode extension                   : CM (complete main)
Codec ID                         : A_AC3
Duration                         : 1h 25mn
Bit rate mode                    : Constant
Bit rate                         : 448 Kbps
Channel(s)                       : 2 channels
Channel positions                : Front: L R
Sampling rate                    : 48.0 KHz
Bit depth                        : 16 bits
Stream size                      : 275 MiB (12%)
Title                            : English_DjVikas

Audio #2
ID                               : 3
Format                           : MPEG Audio
Format version                   : Version 1
Format profile                   : Layer 3
Mode                             : Joint stereo
Mode extension                   : MS Stereo
Codec ID                         : A_MPEG/L3
Codec ID/Hint                    : MP3
Duration                         : 1h 25mn
Bit rate mode                    : Constant
Bit rate                         : 256 Kbps
Channel(s)                       : 2 channels
Sampling rate                    : 44.1 KHz
Stream size                      : 157 MiB (7%)
Title                            : Hindi_DjVikas
Writing library                  : LAME3.96.1

-------------------------------------------------------------------------------------------------------------------- 
http://img837.imageshack.us/img837/4287/sholidaydualaudiohindie.jpg 
http://img824.imageshack.us/img824/4287/sholidaydualaudiohindie.jpg 
http://img26.imageshack.us/img26/4287/sholidaydualaudiohindie.jpg 
http://img138.imageshack.us/img138/4287/sholidaydualaudiohindie.jpg 
http://img833.imageshack.us/img833/4287/sholidaydualaudiohindie.jpg 
http://img693.imageshack.us/img693/4287/sholidaydualaudiohindie.jpg 
http://img826.imageshack.us/img826/4287/sholidaydualaudiohindie.jpg 
http://img716.imageshack.us/img716/4287/sholidaydualaudiohindie.jpg 
http://img690.imageshack.us/img690/4287/sholidaydualaudiohindie.jpg

